<?xml version="1.0" standalone="no"?>
<!DOCTYPE svg PUBLIC "-//W3C//DTD SVG 20010904//EN"
 "http://www.w3.org/TR/2001/REC-SVG-20010904/DTD/svg10.dtd">
<svg version="1.0" xmlns="http://www.w3.org/2000/svg"
 width="828.000000pt" height="828.000000pt" viewBox="0 0 828.000000 828.000000"
 preserveAspectRatio="xMidYMid meet">
<metadata>
Created by potrace 1.14, written by Peter Selinger 2001-2017
</metadata>
<g transform="translate(0.000000,828.000000) scale(0.100000,-0.100000)"
fill="#000000" stroke="none">
<path d="M1509 8275 c-3 -2 -25 -6 -49 -9 -176 -17 -373 -76 -554 -167 -76
-39 -218 -128 -263 -166 -12 -10 -35 -28 -51 -40 -83 -65 -227 -221 -290 -318
-15 -22 -29 -42 -32 -45 -10 -9 -75 -124 -94 -165 -10 -22 -28 -60 -41 -85
-12 -25 -23 -49 -25 -55 -1 -5 -4 -14 -5 -20 -2 -5 -10 -30 -19 -55 -20 -61
-44 -148 -51 -190 -3 -19 -8 -42 -10 -50 -2 -8 -8 -42 -12 -75 -10 -73 -11
-5336 -1 -5385 4 -19 9 -51 13 -70 14 -86 28 -147 47 -199 11 -31 21 -63 23
-71 13 -62 106 -252 165 -342 22 -33 40 -64 40 -69 0 -5 3 -9 8 -9 4 0 14 -11
22 -24 36 -58 144 -173 241 -259 30 -26 61 -53 69 -61 8 -7 23 -16 33 -19 9
-4 17 -11 17 -17 0 -5 7 -10 15 -10 8 0 15 -4 15 -8 0 -5 10 -14 23 -20 12 -7
45 -25 72 -41 97 -57 190 -100 290 -135 112 -39 173 -55 275 -72 19 -3 55 -10
80 -14 25 -5 1237 -8 2705 -7 l2660 2 102 22 c137 29 343 95 375 119 7 6 29
17 48 24 56 22 208 117 295 185 108 84 208 185 290 291 11 14 26 32 33 39 6 8
12 18 12 24 0 6 5 11 10 11 6 0 10 7 10 15 0 8 5 15 10 15 6 0 10 7 10 15 0 8
4 15 9 15 5 0 15 15 21 34 6 19 14 36 18 38 7 2 64 113 68 128 0 3 7 19 14 35
7 17 14 32 15 35 1 3 4 12 8 20 30 77 67 206 73 259 3 19 6 37 9 40 2 4 7 41
12 82 10 89 11 5276 1 5369 -28 268 -153 578 -325 804 -89 117 -212 241 -309
311 -15 11 -33 26 -40 33 -7 6 -17 12 -23 12 -6 0 -11 4 -11 8 0 5 -15 16 -32
25 -18 10 -55 31 -83 47 -54 33 -174 91 -215 105 -3 1 -12 4 -20 8 -8 3 -42
14 -75 25 -52 17 -74 24 -130 38 -11 2 -42 9 -95 19 -19 3 -48 9 -65 12 -34 8
-5329 15 -5336 8z"/>
</g>
</svg>
