<?xml version="1.0" standalone="no"?>
<!DOCTYPE svg PUBLIC "-//W3C//DTD SVG 20010904//EN"
 "http://www.w3.org/TR/2001/REC-SVG-20010904/DTD/svg10.dtd">
<svg version="1.0" xmlns="http://www.w3.org/2000/svg"
 width="270.000000pt" height="270.000000pt" viewBox="0 0 270.000000 270.000000"
 preserveAspectRatio="xMidYMid meet">
<metadata>
Created by potrace 1.14, written by Peter Selinger 2001-2017
</metadata>
<g transform="translate(0.000000,270.000000) scale(0.100000,-0.100000)"
fill="#000000" stroke="none">
<path d="M803 2679 c-11 -4 -33 -9 -49 -12 -49 -8 -159 -67 -214 -115 -72 -63
-141 -172 -173 -273 -32 -99 -35 -117 -43 -229 l-5 -85 38 64 c111 187 295
297 512 305 133 6 288 -42 350 -108 l20 -21 -97 1 c-323 6 -618 -150 -736
-389 -52 -108 -69 -184 -70 -317 -1 -106 7 -211 18 -228 2 -4 7 -23 10 -42 12
-74 110 -342 137 -373 3 -5 11 18 17 50 19 100 22 112 48 196 118 374 387 650
769 787 170 61 307 43 495 -63 136 -77 286 -215 372 -344 91 -135 172 -334
193 -474 4 -24 9 -51 10 -59 2 -8 4 -35 4 -60 l1 -45 21 25 c87 106 186 300
217 423 25 96 27 246 5 320 -73 248 -317 445 -655 529 -122 30 -239 40 -322
26 -28 -4 -52 -6 -54 -4 -2 2 15 23 38 46 96 98 281 137 470 99 135 -28 326
-119 417 -202 13 -11 26 -18 29 -15 8 9 -23 150 -49 223 -78 215 -209 339
-384 363 -65 9 -67 9 -156 -2 -113 -14 -305 -91 -425 -171 -30 -19 -58 -35
-62 -35 -5 0 -35 18 -67 39 -125 83 -283 149 -403 169 -72 12 -196 13 -227 1z"/>
<path d="M1446 1755 c-38 -19 -73 -38 -78 -43 -5 -5 -11 -43 -13 -83 -4 -82
-16 -225 -20 -250 -2 -9 -6 -40 -10 -70 -3 -30 -8 -61 -10 -69 -2 -8 -7 -31
-10 -50 -3 -19 -15 -73 -26 -120 -12 -47 -22 -89 -23 -95 -1 -5 -5 -15 -8 -21
-4 -6 -9 -21 -11 -35 -8 -41 -75 -207 -119 -292 -154 -302 -422 -534 -698
-606 l-75 -20 452 0 451 -1 54 53 c152 152 269 424 313 727 6 39 15 102 20
135 23 150 28 745 7 803 -2 6 -8 12 -13 12 -5 0 -31 14 -57 30 -27 17 -51 30
-53 30 -2 -1 -35 -16 -73 -35z"/>
</g>
</svg>
